<?xml version="1.0" encoding="UTF-8"?>
<svg id="Layer_2" data-name="Layer 2" xmlns="http://www.w3.org/2000/svg" viewBox="0 0 697.95 572.64">
  <g id="Layer_1-2" data-name="Layer 1">
    <g>
      <path d="M662.15,572.57l-621.08.07c-20.82,0-38.43-12.74-41.08-34.23l.12-165.83c.01-19.32,16.32-36.16,35.92-36.16l624.6-.05c19.88,0,35.06,14.73,37.32,34.37l-.02,166.65c-2.34,19.24-15.88,33.34-35.78,35.18ZM97.73,470.35c-1.89-.43-4.44-.87-5.7-.84-9.03.23-14.42-5.81-14.42-14.2l-.02-89.3-28.99-.4c-8.68-.12-18.66,4.62-18.68,15.48l-.22,144.39c-.01,9.15,6.81,17.34,16.23,17.39l51.62.3.18-72.83ZM168.73,543.12l.28-73.63c-5.32.19-9.71.13-13.69-2.72-2.52-1.8-4.84-6.13-4.84-10.31l-.02-90.5-22.65-.1-.06,88.66c0,5.17-1.62,9.82-5.2,12.36-3.8,2.7-8.55,2.79-13.74,2.63l.12,73.74,59.8-.12ZM180.28,470.84l.1,72.37,58.3-.08.04-177.26-37.62-.07-.07,89.71c0,9.02-7.32,15.3-16.32,13.87-1.05-.17-3.42.64-4.43,1.46ZM319.69,543.21l59.46-.09.07-73.89c-8.89,2.02-18.45-2.8-18.46-11.86l-.15-91.5-22.48.08v89.49c-.01,4.48-2.12,9.34-4.8,11.25-3.96,2.82-7.55,3.15-13.64,2.72v73.79ZM390.48,470.87l.19,72.33,57.97-.07v-177.05s-37.56-.24-37.56-.24l-.03,88.68c0,4.45-1.56,8.91-4.26,11.31-7.73,6.89-13.94,1.33-16.31,5.05ZM511.21,469.44c-7.98-.33-13.47-6.29-13.16-13.89l-.08-89.61-37.96-.16v177.42s58.52-.05,58.52-.05l.13-73.39-7.46-.31ZM589.73,543.18l-.07-73.64c-6.22.39-10.44.09-14.19-3.05-3.17-2.65-4.67-7.12-4.68-11.98l-.07-88.6h-22.29s.08,89.64.08,89.64c0,4.49-2.44,9.2-5.14,11.2-3.78,2.8-7.69,3.05-13.3,2.86l-.03,73.58h59.69ZM301.23,469.44c-7.63-.03-13.28-5.55-13.29-12.9l-.2-90.73-37.63.23-.09,177.17,58.26-.04.16-72.9c-1.86-.57-4.4-.83-7.2-.84ZM653.37,542.69c9.02-.43,14.83-9.01,14.83-17.18l.03-144.69c-1.88-7.57-6.29-14.73-14.33-14.79l-32.97-.22-.15,89.72c-.01,8.62-6.15,14.67-15.15,13.97-1.09-.08-3.75.57-4.69,1.26v72.29c17.46.11,34.31.51,52.41-.36Z"/>
      <path d="M454.28,315.91l-52.05.13-.08-257.08c0-10.02,8.47-15.27,17.41-15.1l21.96.42c8.27.16,13.35,9.25,12.71,17.48l.05,254.16Z"/>
      <path d="M294.25,315.87l-51.72.18-.08-207.32c-1.04-8.22,4.32-16.62,12.55-16.79l21.86-.44c8.95-.18,16.54,4.49,17.37,14.23v210.14Z"/>
      <path d="M534.62,316.04l-52.45-.08-.04-164.23c.23-7.45,5.53-14.32,13.12-14.53,8.9-.25,17.64-.23,26.45.05,7.19.24,11.67,6.64,13,13.65l-.07,165.14Z"/>
      <path d="M374.27,315.81l-52.19.12.04-143.21c.62-8.07,6.78-13.82,14.71-13.77l23.88.15c7.49.05,12.53,6.04,13.6,13.54l-.04,143.16Z"/>
      <path d="M214.84,316l-52.32.08-.04-127.26c-.36-7.89,5.39-15.69,13.54-15.7l25.68-.03c7.58-.01,12.67,7.31,13.17,14.59l-.02,128.32Z"/>
      <path d="M134.56,316.03l-49.23-.08-.06-77.39c-.32-7.82,5.15-13.82,12.78-14.43h23.5c7.18.79,12.06,6.28,12.96,13.53l.05,78.36Z"/>
      <path d="M612.35,316l-49.67.07.07-68.52c-.23-8.2,5.95-14.69,14.07-14.72l23-.03c6.58.46,10.75,5.07,12.51,11.49l.02,71.7Z"/>
      <path d="M503.84,94.22c5.89-2.68,11.9.48,14.2,5.59s.13,11.65-5.24,14.09c-5.05,2.29-11.29.08-13.95-4.81s-1.2-12.05,4.99-14.86Z"/>
      <path d="M586.26,190.07c5.85-.96,10.87,3.16,11.93,8.66,1.06,5.52-2.66,11.21-8.3,12.16s-11.38-2.69-12.43-8.3c-1.1-5.92,2.37-11.47,8.8-12.52Z"/>
      <path d="M105.88,181.46c5.96-1.92,11.52,1.68,13.11,6.35,1.98,5.81-1.08,11.89-5.97,13.38-5.83,1.78-11.57-.74-13.58-5.62-2.29-5.57.02-12.05,6.44-14.11Z"/>
      <path d="M423.83.86c6.42-2.56,12.2.86,14.24,6.99,1.6,4.8-.75,10.65-6.5,12.99-4.81,1.96-11.32-.51-13.55-5.94-1.96-4.77-.19-11.65,5.81-14.04Z"/>
      <path d="M264.7,48.83c6.41-1.98,11.68,1.6,13.52,7.13,1.71,5.16-1.3,11.16-6.69,13.04-5.2,1.81-11.06-1.16-13.09-5.8-2.4-5.48-.07-12.4,6.26-14.36Z"/>
      <path d="M343.92,116.99c5.83-2.56,11.76.65,13.89,5.9,2,4.93-.51,11.31-5.54,13.47s-11.14-.06-13.49-4.53c-2.76-5.27-.94-12.17,5.14-14.84Z"/>
    </g>
  </g>
</svg>